<?xml version="1.0" encoding="utf-8" ?>
<svg baseProfile="full" height="200mm" version="1.1" viewBox="0,0,200,200" width="200mm" xmlns="http://www.w3.org/2000/svg" xmlns:ev="http://www.w3.org/2001/xml-events" xmlns:xlink="http://www.w3.org/1999/xlink"><defs /><rect fill="#1a1a1a" height="200" width="200" x="0" y="0" /><text alignment-baseline="middle" fill="#e1ed5e" style="dominant-baseline: central; font-size:9.0px; font-family:Arial;" text-anchor="middle" x="100.0" y="100.0">2021</text><line stroke="#e1ed5e" stroke-width="0.3" x1="100.0" x2="100.0" y1="15.0" y2="10.0" /><path d="M 100.0 14.0 a86.0,86.0 0 0,1 42.46469731375804,11.215312516191453" fill="none" id="id25" stroke="none" /><text fill="#e1ed5e" style="font-size:6.75px; font-family:Arial;" text-anchor="middle"><textPath startOffset="22.20632615414155" xlink:href="#id25">January</textPath></text><path d="M 100.36148047927253 79.00311137660856 l 1.0450602793839907 -60.703179145706116 a81.71217430946808,81.71217430946808 0 0,0 1.4061239702740933,0.03631603368238124 l -2.0898108848529517 60.67619631988138" fill="#4aecff" stroke="none" /><path d="M 106.0581310904928 79.89281104454417 l 10.531095340355733 -34.9531432637303 a57.50515296615694,57.50515296615694 0 0,0 0.9453152356392859,0.2937140452719055 l -11.131195948705738 34.766689083575876" fill="#88ff25" stroke="none" /><path d="M 107.08798089147638 80.2323363322302 l 16.44065445947383 -45.85132674718657 a69.70974526245321,69.70974526245321 0 0,0 1.1260370313769303,0.41472894167354485 l -17.227473816623338 45.5615345377067" fill="#37ff79" stroke="none" /><path d="M 108.09893153111575 80.62456947434976 l 24.24988903916109 -58.01407735425858 a83.87837696440266,83.87837696440266 0 0,0 1.327340335021794,0.5682978603909611 l -25.2449131319732 57.588059965904826" fill="#4dd3ff" stroke="none" /><path d="M 109.08828744355905 81.06846463323043 l 27.264862330677165 -56.79460610030869 a84.0,84.0 0 0,0 1.2981149319582728,0.6369793594606721 l -28.23844852964587 56.31687158071319" fill="#4dd2ff" stroke="none" /><line stroke="#e1ed5e" stroke-width="0.3" x1="143.23703022742887" x2="145.7803849466894" y1="26.81831364943548" y2="22.513508569990506" /><path d="M 143.74570117128098 25.957352633546492 a86.0,86.0 0 0,1 28.547481713284135,27.462654790039103" fill="none" id="id26" stroke="none" /><text fill="#e1ed5e" style="font-size:6.75px; font-family:Arial;" text-anchor="middle"><textPath startOffset="19.985693538727396" xlink:href="#id26">February</textPath></text><path d="M 110.68208982089419 81.91981866633111 l 18.807880248946496 -31.83364782589112 a57.974551969720665,57.974551969720665 0 0,0 0.8548152611363095,0.5150166302413879 l -19.353057576300444 31.505184586191117" fill="#82ff25" stroke="none" /><path d="M 111.2981086023043 82.29822771554956 l 33.45903584770227 -52.423308562681996 a83.1909186338005,83.1909186338005 0 0,0 1.2004567381589768,0.7808104553752021 l -34.356459611645526 51.839599183147264" fill="#4cdbff" stroke="none" /><path d="M 117.45458315368197 88.32363383020206 l 43.3579602180885 -29.00461245189573 a73.16493321914646,73.16493321914646 0 0,0 0.6912461392614947,1.0528152937669462 l -43.85080299270792 28.25397909415111" fill="#3cffa8" stroke="none" /><line stroke="#e1ed5e" stroke-width="0.3" x1="172.23445277983987" x2="176.4835382374775" y1="55.19839476539836" y2="52.563006222186495" /><path d="M 173.08426987136738 54.67131705675599 a86.0,86.0 0 0,1 12.851231095245387,41.99856678651699" fill="none" id="id27" stroke="none" /><text fill="#e1ed5e" style="font-size:6.75px; font-family:Arial;" text-anchor="middle"><textPath startOffset="22.20632615414155" xlink:href="#id27">March</textPath></text><line stroke="#e1ed5e" stroke-width="0.3" x1="184.98032266829074" x2="189.97916517819016" y1="98.17113171792111" y2="98.06355123074" /><path d="M 185.9800911702706 98.14961562048488 a86.0,86.0 0 0,1 -9.607161424134198,41.387399972396054" fill="none" id="id28" stroke="none" /><text fill="#e1ed5e" style="font-size:6.75px; font-family:Arial;" text-anchor="middle"><textPath startOffset="21.466115282336823" xlink:href="#id28">April</textPath></text><path d="M 120.81339534386255 102.79330883721812 l 44.850797498619485 6.0193028066474055 a66.25291197857089,66.25291197857089 0 0,0 -0.1614234816331981,1.1289954545721415 l -44.74053996596969 -6.7904437331999565" fill="#32ff48" stroke="none" /><path d="M 120.76222939487914 103.15116336523771 l 60.22949525715983 9.14126201726348 a81.91924794513227,81.91924794513227 0 0,0 -0.22359369410750524,1.3923181466442833 l -60.06321980869104 -10.17665939360097" fill="#4aeaff" stroke="none" /><path d="M 120.32669344350535 105.2749913415812 l 43.391582914820184 11.260573433123378 a65.82889672852187,65.82889672852187 0 0,0 -0.2940731159238631,1.0943554622370226 l -43.19132172255454 -12.005819828535948" fill="#31ff42" stroke="none" /><line stroke="#e1ed5e" stroke-width="0.3" x1="174.80103733775053" x2="179.2010983576182" y1="140.37084112569926" y2="142.7455964860345" /><path d="M 175.68104954172406 140.8457921977663 a86.0,86.0 0 0,1 -30.038265399797805,32.042727171017184" fill="none" id="id29" stroke="none" /><text fill="#e1ed5e" style="font-size:6.75px; font-family:Arial;" text-anchor="middle"><textPath startOffset="22.206326154141568" xlink:href="#id29">May</textPath></text><path d="M 111.45004920935366 117.60387380957326 l 25.034621894519283 38.48946992659906 a66.91482972452492,66.91482972452492 0 0,0 -0.9709603014282727,0.619712803768181 l -24.36837979104408 -38.91469715919104" fill="#33ff52" stroke="none" /><line stroke="#e1ed5e" stroke-width="0.3" x1="143.8653032363475" x2="146.44561519142675" y1="172.8068346515853" y2="177.08958963109032" /><path d="M 144.38136562736335 173.6633856474863 a86.0,86.0 0 0,1 -40.68145358897372,12.25698825130547" fill="none" id="id30" stroke="none" /><text fill="#e1ed5e" style="font-size:6.75px; font-family:Arial;" text-anchor="middle"><textPath startOffset="21.466115282336833" xlink:href="#id30">June</textPath></text><path d="M 110.8373102113329 117.98757091392108 l 19.960210376323012 33.12959513011252 a59.67790159447961,59.67790159447961 0 0,0 -0.8844609698004094,0.5225551308431444 l -19.386981535494222 -33.46826883324942" fill="#6cff28" stroke="none" /><path d="M 109.57404056367764 118.69057910512821 l 5.73538171764179 11.196694329704473 a33.58016563324569,33.58016563324569 0 0,0 -0.5167285382737622,0.25909841619895485 l -5.541799271685267 -11.293760586812729" fill="#ff0000" stroke="none" /><path d="M 108.59647513512805 119.15986991738527 l 16.698398571465447 37.21748035430855 a61.7918785884502,61.7918785884502 0 0,0 -0.9741911178425754,0.4270567572242643 l -16.055286778965115 -37.49940166482727" fill="#51ff2b" stroke="none" /><path d="M 108.2653958097858 119.30500536409082 l 23.949194976525032 55.9367449699247 a81.84803511908999,81.84803511908999 0 0,0 -1.2999359855366965,0.5433733473822693 l -22.982787531490874 -56.34070336032694" fill="#4aeaff" stroke="none" /><path d="M 107.93186726928326 119.44442032107085 l 15.598093181444636 38.237639351552716 a62.29670173363053,62.29670173363053 0 0,0 -0.9963880544967917,0.39648336999017325 l -14.937584050905977 -38.50046956594896" fill="#4bff2c" stroke="none" /><path d="M 105.88484417918355 120.15858648285463 l 17.510037202416864 59.98078938292186 a83.4843700282595,83.4843700282595 0 0,0 -1.3829338230120711,0.39083091213579846 l -16.474972211300187 -60.273309088396175" fill="#4cd8ff" stroke="none" /><line stroke="#e1ed5e" stroke-width="0.3" x1="102.19456741930631" x2="102.32365962044197" y1="184.97166512339345" y2="189.96999836594603" /><path d="M 102.22038585953345 185.97133177190398 a86.0,86.0 0 0,1 -42.740103519485714,-10.115201625700543" fill="none" id="id31" stroke="none" /><text fill="#e1ed5e" style="font-size:6.75px; font-family:Arial;" text-anchor="middle"><textPath startOffset="22.20632615414155" xlink:href="#id31">July</textPath></text><line stroke="#e1ed5e" stroke-width="0.3" x1="58.666819895761336" x2="56.23545636021788" y1="174.27360380694188" y2="178.64263932499728" /><path d="M 58.180547188652646 175.14741091055294 a86.0,86.0 0 0,1 -31.652253787137756,-30.449443065178592" fill="none" id="id32" stroke="none" /><text fill="#e1ed5e" style="font-size:6.75px; font-family:Arial;" text-anchor="middle"><textPath startOffset="22.20632615414155" xlink:href="#id32">August</textPath></text><line stroke="#e1ed5e" stroke-width="0.3" x1="26.63291911575756" x2="22.317208475507996" y1="142.92168965132927" y2="145.44649492493687" /><path d="M 25.769776987707644 143.4266507060508 a86.0,86.0 0 0,1 -11.730757126820373,-40.83630448921669" fill="none" id="id33" stroke="none" /><text fill="#e1ed5e" style="font-size:6.75px; font-family:Arial;" text-anchor="middle"><textPath startOffset="21.46611528233685" xlink:href="#id33">September</textPath></text><line stroke="#e1ed5e" stroke-width="0.3" x1="15.007084014347285" x2="10.007500721073583" y1="101.09737516637583" y2="101.16192664675087" /><path d="M 14.007167355692545 101.11028546245083 a86.0,86.0 0 0,1 10.666146001902534,-42.60595125391555" fill="none" id="id34" stroke="none" /><text fill="#e1ed5e" style="font-size:6.75px; font-family:Arial;" text-anchor="middle"><textPath startOffset="22.20632615414155" xlink:href="#id34">October</textPath></text><line stroke="#e1ed5e" stroke-width="0.3" x1="26.266209847984243" x2="21.928928074336255" y1="57.711370442889674" y2="55.22380399835377" /><path d="M 25.398753493254645 57.213857153982495 a86.0,86.0 0 0,1 29.58750427330803,-30.492523968695096" fill="none" id="id35" stroke="none" /><text fill="#e1ed5e" style="font-size:6.75px; font-family:Arial;" text-anchor="middle"><textPath startOffset="21.46611528233685" xlink:href="#id35">November</textPath></text><line stroke="#e1ed5e" stroke-width="0.3" x1="56.762969772571076" x2="54.21961505331055" y1="26.818313649435495" y2="22.513508569990535" /><path d="M 56.25429882871897 25.957352633546506 a86.0,86.0 0 0,1 42.265352541879196,-11.944610805530505" fill="none" id="id36" stroke="none" /><text fill="#e1ed5e" style="font-size:6.75px; font-family:Arial;" text-anchor="middle"><textPath startOffset="22.20632615414155" xlink:href="#id36">December</textPath></text></svg>