<?xml version="1.0" encoding="utf-8" ?>
<svg baseProfile="full" height="200mm" version="1.1" viewBox="0,0,200,200" width="200mm" xmlns="http://www.w3.org/2000/svg" xmlns:ev="http://www.w3.org/2001/xml-events" xmlns:xlink="http://www.w3.org/1999/xlink"><defs /><rect fill="#1a1a1a" height="200" width="200" x="0" y="0" /><text alignment-baseline="middle" fill="#e1ed5e" style="dominant-baseline: central; font-size:9.0px; font-family:Arial;" text-anchor="middle" x="100.0" y="100.0">2020</text><line stroke="#e1ed5e" stroke-width="0.3" x1="100.0" x2="100.0" y1="15.0" y2="10.0" /><path d="M 100.0 14.0 a86.0,86.0 0 0,1 42.35913384403234,11.155469271406648" fill="none" id="id13" stroke="none" /><text fill="#e1ed5e" style="font-size:6.75px; font-family:Arial;" text-anchor="middle"><textPath startOffset="22.145653131862478" xlink:href="#id13">January</textPath></text><line stroke="#e1ed5e" stroke-width="0.3" x1="143.13028292997686" x2="145.6673583964461" y1="26.7553504044142" y2="22.446841604673864" /><path d="M 143.63769802327073 25.89364864446614 a86.0,86.0 0 0,1 29.32050498858742,28.57503671076993" fill="none" id="id14" stroke="none" /><text fill="#e1ed5e" style="font-size:6.75px; font-family:Arial;" text-anchor="middle"><textPath startOffset="20.669276256404974" xlink:href="#id14">February</textPath></text><line stroke="#e1ed5e" stroke-width="0.3" x1="172.87174338648825" x2="177.1583165268699" y1="56.24261187166439" y2="53.66864786411523" /><path d="M 173.72905801456457 55.72781907015455 a86.0,86.0 0 0,1 12.242430191666344,42.057860355516425" fill="none" id="id15" stroke="none" /><text fill="#e1ed5e" style="font-size:6.75px; font-family:Arial;" text-anchor="middle"><textPath startOffset="22.145653131862474" xlink:href="#id15">March</textPath></text><line stroke="#e1ed5e" stroke-width="0.3" x1="184.99686870605535" x2="189.99668451229388" y1="99.2704041080226" y2="99.22748670261217" /><path d="M 185.99683186730306 99.26182062694052 a86.0,86.0 0 0,1 -10.086455211305974,41.156179273409016" fill="none" id="id16" stroke="none" /><text fill="#e1ed5e" style="font-size:6.75px; font-family:Arial;" text-anchor="middle"><textPath startOffset="21.40746469413373" xlink:href="#id16">April</textPath></text><path d="M 120.65975698304385 103.76489593502545 l 61.97927094913153 11.294687805076347 a84.0,84.0 0 0,0 -0.27069483087136303,1.4163897398667418 l -61.776249825978006 -12.356980109976403" fill="#4dd2ff" stroke="none" /><line stroke="#e1ed5e" stroke-width="0.3" x1="174.33088141563837" x2="178.70328620479359" y1="141.23008692659167" y2="143.65538615756765" /><path d="M 175.20536237346943 141.71514677278685 a86.0,86.0 0 0,1 -30.301960400862466,31.631185727798858" fill="none" id="id17" stroke="none" /><text fill="#e1ed5e" style="font-size:6.75px; font-family:Arial;" text-anchor="middle"><textPath startOffset="22.145653131862474" xlink:href="#id17">May</textPath></text><path d="M 116.35404254752997 113.17365903436017 l 18.60723223129727 14.988669148674157 a44.89328973075588,44.89328973075588 0 0,0 -0.48859543632410063,0.5960069878087249 l -18.347189975734544 -15.305878418181376" fill="#ffd614" stroke="none" /><path d="M 115.89218393027572 113.72728997021213 l 20.387120566048665 17.609909178981532 a47.93962854730151,47.93962854730151 0 0,0 -0.5432905329615669,0.6181648960426895 l -20.081818969128513 -17.957286352835514" fill="#fcff18" stroke="none" /><path d="M 114.65682725009322 115.03919595460226 l 7.392355650271543 7.585208128166885 a31.591614815867814,31.591614815867814 0 0,0 -0.39162697869121166,0.3751697866255212 l -7.261056185715019 -7.7109900450979865" fill="#ff0000" stroke="none" /><path d="M 112.16784306229584 117.11559508785304 l 13.188477875124175 18.551245769695445 a43.7614733325917,43.7614733325917 0 0,0 -0.6160050635515605,0.4300193757231524 l -12.868077720398855 -18.77490996122372" fill="#ffc512" stroke="none" /><line stroke="#e1ed5e" stroke-width="0.3" x1="143.1302829299769" x2="145.66735839644613" y1="173.24464959558577" y2="177.55315839532614" /><path d="M 143.63769802327073 174.10635135553383 a86.0,86.0 0 0,1 -40.68552437913181,11.842963189579606" fill="none" id="id18" stroke="none" /><text fill="#e1ed5e" style="font-size:6.75px; font-family:Arial;" text-anchor="middle"><textPath startOffset="21.407464694133747" xlink:href="#id18">June</textPath></text><path d="M 110.02825361518725 118.45085714620011 l 10.307490529641608 18.964621617686984 a42.58474540319371,42.58474540319371 0 0,0 -0.6452829649608754,0.34357683313412435 l -9.98041874889418 -19.138768918543676" fill="#ffb310" stroke="none" /><line stroke="#e1ed5e" stroke-width="0.3" x1="101.45913802915013" x2="101.54496967792366" y1="184.9874750549273" y2="189.98673829345242" /><path d="M 101.47630435890484 185.9873277026323 a86.0,86.0 0 0,1 -42.54439059252881,-10.42667462771756" fill="none" id="id19" stroke="none" /><text fill="#e1ed5e" style="font-size:6.75px; font-family:Arial;" text-anchor="middle"><textPath startOffset="22.145653131862474" xlink:href="#id19">July</textPath></text><path d="M 96.41257539226777 120.69131181640829 l -8.721153514947387 50.3012959178572 a72.05172758729245,72.05172758729245 0 0,0 -1.2168688172787485,-0.22175403454126127 l 9.583357065777193 -50.144173709384575" fill="#3bff9f" stroke="none" /><path d="M 95.70440661134978 120.55596938700252 l -6.703722053147446 32.079736799011464 a53.772692938782214,53.772692938782214 0 0,0 -0.9019411148875177,-0.19657386805398036 l 7.2534255846541 -31.959931472823765" fill="#abff21" stroke="none" /><path d="M 95.35216902796893 120.47920084513623 l -4.906465879490373 21.61879396874494 a43.16857370445031,43.16857370445031 0 0,0 -0.7212602134191138,-0.17021544647716882 l 5.2768582466493745 -21.531382378621544" fill="#ffbc11" stroke="none" /><path d="M 95.00130118170881 120.39639698878247 l -7.837671369356744 31.9803737988885 a53.9267884982831,53.9267884982831 0 0,0 -0.8972254502216498,-0.22807120087351518 l 8.385502112803772 -31.84111736617972" fill="#a9ff21" stroke="none" /><path d="M 93.95794788825049 120.11202640906438 l -9.319902661715556 31.022924826786685 a53.39262956958435,53.39262956958435 0 0,0 -0.8755358156143508,-0.2712432337361365 l 9.851079110201539 -30.8583650052439" fill="#b0ff20" stroke="none" /><path d="M 93.61358852112213 120.00534299687104 l -10.000459461372033 31.32629682768323 a53.883826759893104,53.883826759893104 0 0,0 -0.878761213037688,-0.28886626514104097 l 10.536743412057465 -31.15000964114017" fill="#aaff21" stroke="none" /><path d="M 92.93061703081489 119.77432235084164 l -11.165575685498165 31.232102405566973 a54.16797101211363,54.16797101211363 0 0,0 -0.8729061439706891,-0.3205432270759834 l 11.700070981122973 -31.03582832948227" fill="#a6ff21" stroke="none" /><path d="M 92.59220618246901 119.65005319985036 l -11.617033308949656 30.81556103857362 a53.932571491204605,53.932571491204605 0 0,0 -0.863506023352084,-0.3340226800547236 l 12.14431159479527 -30.611598470380855" fill="#a9ff21" stroke="none" /><path d="M 90.6110303473126 118.78422872680471 l -14.730717992919073 29.471303702621768 a53.9477130392851,53.9477130392851 0 0,0 -0.824816290843889,-0.42115707515364 l 15.234461505476546 -29.21408867579529" fill="#a9ff21" stroke="none" /><path d="M 90.28995756902619 118.62028667847754 l -15.24667222274761 29.23750433620598 a53.97412127225784,53.97412127225784 0 0,0 -0.817865192710709,-0.43546714867827435 l 15.74632623124488 -28.971466719805132" fill="#a9ff21" stroke="none" /><line stroke="#e1ed5e" stroke-width="0.3" x1="58.13341422392154" x2="55.67067388415222" y1="173.97424548756322" y2="178.32567169271397" /><path d="M 57.64086615596768 174.84453072859336 a86.0,86.0 0 0,1 -31.369924170532247,-30.572349798747897" fill="none" id="id20" stroke="none" /><text fill="#e1ed5e" style="font-size:6.75px; font-family:Arial;" text-anchor="middle"><textPath startOffset="22.145653131862474" xlink:href="#id20">August</textPath></text><path d="M 89.65649057296885 118.27599006163327 l -24.501163115622127 43.29120756919836 a70.74369956906844,70.74369956906844 0 0,0 -1.051748374137341,-0.6072272069279497 l 25.240703957619868 -42.86423346499424" fill="#3aff8e" stroke="none" /><path d="M 89.34428304082925 118.09573695890944 l -17.116613731196335 29.067752164758204 a54.73296135139612,54.73296135139612 0 0,0 -0.80553169001547,-0.483698635048942 l 17.613078177769232 -28.769639529173347" fill="#9fff22" stroke="none" /><path d="M 86.96720088162412 116.46651593811092 l -20.399484142014366 25.77408181486501 a53.870081330286524,53.870081330286524 0 0,0 -0.7201897063989205,-0.5801338479205731 l 20.838924618768548 -25.420099673151025" fill="#aaff21" stroke="none" /><path d="M 86.68645165197938 116.24036423190432 l -20.83693208581599 25.417669106930234 a53.866938427214414,53.866938427214414 0 0,0 -0.7100833855606647,-0.5923768152254597 l 21.27018980553855 -25.056230107792903" fill="#aaff21" stroke="none" /><path d="M 85.86807049272751 115.53346607816431 l -30.801064692840317 33.855765649790676 a66.7702791552125,66.7702791552125 0 0,0 -0.8412108583583247,-0.7786122119475614 l 31.377705322512607 -33.32203569171074" fill="#34ff59" stroke="none" /><path d="M 85.08716467003676 114.78537596483092 l -23.472004025764395 23.271389812215332 a54.05287516658089,54.05287516658089 0 0,0 -0.647638896555209,-0.6645345617384052 l 23.868029723470414 -22.86503255840919" fill="#a8ff21" stroke="none" /><path d="M 84.1078160697243 113.72728997021213 l -24.915725882549907 21.521610592267304 a53.92374703370744,53.92374703370744 0 0,0 -0.5990811113824371,-0.7057160428404817 l 25.28150155743946 -21.090727766977267" fill="#a9ff21" stroke="none" /><path d="M 83.4222238831116 112.89097897827486 l -26.189587423389682 20.365181586731193 a54.17582117247298,54.17582117247298 0 0,0 -0.5645843494668108,-0.739059036853142 l 26.53532375021079 -19.91260163663718" fill="#a6ff21" stroke="none" /><path d="M 82.98947788004972 112.3143062007846 l -27.031877649625642 19.568994779368285 a54.3716641170211,54.3716641170211 0 0,0 -0.5408295096117155,-0.7607444352039279 l 27.36382225776732 -19.102073117454854" fill="#a3ff21" stroke="none" /><path d="M 82.78059297857968 112.02048342749411 l -26.821761532320934 18.72367263253582 a53.71059168751097,53.71059168751097 0 0,0 -0.5212747536969632,-0.7605554441286198 l 27.139226022833224 -18.260482453337147" fill="#acff20" stroke="none" /><path d="M 82.576782715395 111.72311816256416 l -32.59725409963988 21.93288732746645 a60.289089087885806,60.289089087885806 0 0,0 -0.5703794572140003,-0.8636271959164283 l 32.96895799577461 -21.37008025321096" fill="#59ff2a" stroke="none" /><line stroke="#e1ed5e" stroke-width="0.3" x1="26.387840678322732" x2="22.057713659400548" y1="142.50000000000003" y2="145.00000000000006" /><path d="M 25.521815274538298 143.00000000000003 a86.0,86.0 0 0,1 -11.493303480769221,-40.785679425670985" fill="none" id="id21" stroke="none" /><text fill="#e1ed5e" style="font-size:6.75px; font-family:Arial;" text-anchor="middle"><textPath startOffset="21.40746469413373" xlink:href="#id21">September</textPath></text><line stroke="#e1ed5e" stroke-width="0.3" x1="15.003131293944662" x2="10.003315487706104" y1="100.72959589197737" y2="100.7725132973878" /><path d="M 14.003168132696942 100.73817937305945 a86.0,86.0 0 0,1 10.791469493833604,-42.45332614584628" fill="none" id="id22" stroke="none" /><text fill="#e1ed5e" style="font-size:6.75px; font-family:Arial;" text-anchor="middle"><textPath startOffset="22.145653131862435" xlink:href="#id22">October</textPath></text><path d="M 79.0935383218832 98.0201363427161 l -19.83259906324327 -1.8781677511646309 a40.92133277933162,40.92133277933162 0 0,0 0.07223123345673776,-0.6987716608011583 l 19.797435437304866 2.218343934248702" fill="#ff990e" stroke="none" /><line stroke="#e1ed5e" stroke-width="0.3" x1="26.387840678322718" x2="22.05771365940052" y1="57.49999999999999" y2="54.99999999999999" /><path d="M 25.521815274538284 56.99999999999999 a86.0,86.0 0 0,1 29.574782752854787,-30.34633250058573" fill="none" id="id23" stroke="none" /><text fill="#e1ed5e" style="font-size:6.75px; font-family:Arial;" text-anchor="middle"><textPath startOffset="21.40746469413373" xlink:href="#id23">November</textPath></text><line stroke="#e1ed5e" stroke-width="0.3" x1="56.869717070023135" x2="54.33264160355391" y1="26.7553504044142" y2="22.446841604673864" /><path d="M 56.362301976729285 25.89364864446614 a86.0,86.0 0 0,1 42.16139366436587,-11.88097634709845" fill="none" id="id24" stroke="none" /><text fill="#e1ed5e" style="font-size:6.75px; font-family:Arial;" text-anchor="middle"><textPath startOffset="22.145653131862474" xlink:href="#id24">December</textPath></text></svg>